<!-- icon666.com - MILLIONS vector ICONS FREE --><svg id="Icon" enable-background="new 0 0 100 100" viewBox="0 0 100 100" xmlns="http://www.w3.org/2000/svg"><path id="Reload" d="m80 51c0 15.99-13.009 29-29 29-10.643 0-19.958-5.767-25-14.337v9.337h-6v-16c0-1.469 1.057-2.686 2.451-2.945-.003-.019-.008-.037-.011-.055h16.56v6h-8.169c3.907 7.139 11.473 12 20.169 12 12.682 0 23-10.317 23-23zm-6-26v9.337c-5.042-8.57-14.357-14.337-25-14.337-15.991 0-29 13.01-29 29h6c0-12.683 10.318-23 23-23 8.696 0 16.262 4.861 20.169 12h-8.169v6h16.56c-.003-.019-.008-.037-.011-.055 1.394-.259 2.451-1.476 2.451-2.945v-16z"></path></svg>